<?xml version="1.0" encoding="utf-8"?>
<!-- Generator: Adobe Illustrator 22.0.1, SVG Export Plug-In . SVG Version: 6.00 Build 0)  -->
<svg version="1.1" baseProfile="tiny" xmlns="http://www.w3.org/2000/svg" xmlns:xlink="http://www.w3.org/1999/xlink" x="0px"
	 y="0px" viewBox="0 0 347 316.3" xml:space="preserve">
<g id="OBJECTS">
	<path fill="#2C6866" d="M182.4,13.7c79.3,9.4,136,81.3,126.5,160.6c-3.8,31.8-17.6,59.9-37.9,81.6l32.7,60.4l-146.8-14.7
		c-2.9-0.2-5.7-0.4-8.6-0.8c-79.3-9.4-136-81.3-126.5-160.6C31.2,60.9,103.1,4.3,182.4,13.7z"/>
	<path fill="#B6E0D6" d="M190.5,6.7c79.3,9.4,136,81.3,126.5,160.6c-3.8,31.8-17.6,59.9-37.9,81.6l32.7,60.4L165,294.6
		c-2.9-0.2-5.7-0.4-8.6-0.8c-79.3-9.4-136-81.3-126.5-160.6C39.3,53.9,111.2-2.7,190.5,6.7z"/>
	<g>
		<path fill="#A7D1C6" d="M225.4,74.3c-3.4-3.1-7.2-5.9-11.4-8.3c-8-4.6-17.2-7.6-27.2-8.9c-28.1-3.6-46.6,5.4-58.3,15.8
			c-0.5,0.4-1,0.8-1.5,1.2c-0.6,0.6-1.2,1.2-1.8,1.7c-2.9,3.2-4.9,7.3-5.5,12c-0.6,4.5,0.3,8.9,2.2,12.7c3.2,6.3,9.3,10.9,16.8,11.9
			c6.6,0.9,12.9-1.4,17.5-5.5c0.3-0.4,0.7-0.7,1.1-1c5.8-5.4,13.8-9.2,24.1-7.9c4.2,0.5,8,2.2,11.1,4.7c0.4,0.3,0.8,0.7,1.2,1.1
			c4.6,4.4,7,10.9,6.1,18.3c-0.5,3.6-1.4,6.5-2.8,8.8c-0.6,1.1-1.4,2.1-2.2,3c-6.2,6.8-17.3,7.9-29.5,13.7
			c-12.7,6-14.4,15.4-15.9,26.8l-1.4,11.3c0,0,0,0,0,0l-0.5,4c-0.6,5,0.4,9.8,2.8,13.8c3.3,5.6,9,9.7,15.9,10.7
			c6.9,0.8,13.5-1.7,18.1-6.3c3.1-3.1,5.3-7.2,6.1-11.8l0.2-1.6c0-0.1,0-0.2,0-0.3l0-0.4c1.1-8.6,3-14.2,11.7-18.6
			c9-4.6,16.3-8.9,22.2-13.5c0.8-0.6,1.6-1.2,2.4-2c9.5-8.3,14.8-18.1,16.8-33.5C246.3,104.8,239,86.7,225.4,74.3z"/>
		
			<ellipse transform="matrix(0.9708 -0.2398 0.2398 0.9708 -54.7293 46.0421)" fill="#A7D1C6" cx="161.9" cy="248" rx="23.8" ry="23.8"/>
	</g>
	<g>
		<path fill="#FFFFFF" d="M180.1,48.5c-28.1-3.6-46.6,5.4-58.3,15.8c4.4-3.2,9.9-4.8,15.7-4c12,1.5,20.4,12.5,18.9,24.5
			c-0.6,4.8-2.8,9.1-5.9,12.3c-0.4,0.3-0.7,0.7-1.1,1c-4.6,4.2-10.9,6.4-17.5,5.5c-7.4-1-13.5-5.5-16.7-11.8
			c3.2,6.3,9.3,10.9,16.8,11.9c6.6,0.9,12.9-1.4,17.5-5.5c0.3-0.4,0.7-0.7,1.1-1c5.8-5.4,13.8-9.2,24.1-7.9c4.2,0.5,8,2.2,11.1,4.7
			c-4.8-4.6,0.8-9,1.7-16.2c0.6-4.6-4.5-8-1.6-11.2c0.6-0.6,2.1-3.3,2.8-3.8c4.5-4,8.4-5.6,14.8-4.8c1.3,0.2,2.8-1.1,4-0.7
			C199.3,52.9,190.1,49.8,180.1,48.5z"/>
		<path fill="#4EA5A2" d="M191.2,144.7c-2.2-3.8-4.6-7.1-4-11.8c0.4-3-0.7-5.3,0.8-7.7c-6.2,6.8-17.3,7.9-29.5,13.7
			c-12.7,6-14.4,15.4-15.9,26.8l-1.4,11.3c3.1-9.7,12.9-16.1,23.4-14.8c11.6,1.5,19.9,11.9,18.8,23.4l-0.2,1.6
			c-0.8,4.6-2.9,8.6-6,11.7c-4.5,4.6-11.1,7.1-17.9,6.2c0.1,0,0.1,0,0.2,0c6.9,0.9,13.5-1.6,18.1-6.2c3.1-3.1,5.2-7.1,6-11.7
			c0-0.3,0.1-0.5,0.1-0.8c0-0.3,0.1-0.5,0.1-0.8l0.1-0.7c1.1-8.6,3-14.2,11.7-18.6c9-4.6,16.3-8.9,22.2-13.5
			c-4.1,2.9-8.4,1.1-13.8,0.4C197.2,152.4,194.3,150.1,191.2,144.7z"/>
		<path fill="#CA2332" d="M218.7,65.7c3,4.3,4.5,9.7,3.8,15.3c-0.6,4.8-2.8,9.1-5.9,12.3c-0.4,0.3-0.7,0.7-1.1,1
			c-4.6,4.2-10.9,6.4-17.5,5.5c-4.3-0.5-8.1-2.3-11.2-4.9c4.6,4.4,7,10.9,6.1,18.3c-0.5,3.6-1.4,6.5-2.8,8.8
			c4.5-1.4,10.6-1.9,17.7-1c11.1,1.4,14.7,6,13.7,17l0.2,1.2c-0.7,4.4,1.6,8.2-1.3,11.2c-0.1,0.1-0.3,0.2-0.4,0.4
			c9.5-8.3,14.8-18.1,16.8-33.5C239.5,96.3,232.2,78.2,218.7,65.7z"/>
		
			<ellipse transform="matrix(0.9588 -0.2839 0.2839 0.9588 -61.5964 53.8898)" fill="#5DBFBE" cx="155.1" cy="239.4" rx="23.8" ry="23.8"/>
		<path fill="#FCB72C" d="M118.6,67.4c0.6-0.6,1.2-1.2,1.8-1.7c0.5-0.4,0.9-0.9,1.4-1.3c-0.5,0.4-1,0.8-1.5,1.2
			c-0.6,0.6-1.2,1.2-1.8,1.7c-2.9,3.2-4.9,7.3-5.5,12c-0.6,4.5,0.3,8.9,2.2,12.7c-1.9-3.8-2.7-8.1-2.1-12.6
			C113.6,74.7,115.6,70.6,118.6,67.4z"/>
		<path fill="#E8E8E8" d="M131.9,103.7c6.6,0.9,12.9-1.4,17.5-5.5c0.3-0.4,0.7-0.7,1.1-1c3.1-3.3,5.3-7.5,5.9-12.3
			c1.5-12-6.9-22.9-18.9-24.5c-5.8-0.7-11.3,0.9-15.7,4c-0.5,0.4-1,0.9-1.4,1.3c-0.6,0.6-1.2,1.2-1.8,1.7c-2.9,3.2-4.9,7.3-5.5,12
			c-0.6,4.5,0.3,8.8,2.1,12.6C118.3,98.1,124.4,102.7,131.9,103.7z"/>
		<path fill="#FFFFFF" d="M215.5,94.5c0.3-0.4,0.7-0.7,1.1-1c3.1-3.3,5.3-7.5,5.9-12.3c0.7-5.6-0.8-11-3.8-15.3
			c-3.4-3.1-7.2-5.9-11.4-8.3c-1.2-0.4-2.5-0.7-3.7-0.8c-6.5-0.8-12.6,1.3-17.2,5.2c-0.6,0.6-1.2,1.1-1.8,1.7
			c-2.9,3.2-4.9,7.3-5.5,12c-0.9,7.1,1.7,13.9,6.5,18.5c0.4,0.3,0.8,0.7,1.2,1.1c3.1,2.6,6.9,4.3,11.2,4.9
			C204.6,100.8,210.9,98.6,215.5,94.5z"/>
		<path fill="#5DBFBE" d="M177.4,199.1c3.1-3.1,5.3-7.2,6.1-11.8l0.2-1.6c1.1-11.7-7.3-22.2-19-23.7c-10.6-1.4-20.4,5.1-23.6,14.9
			l-0.5,4c-0.6,5,0.4,9.8,2.8,13.8c3.3,5.6,9,9.7,15.9,10.7C166.2,206.3,172.8,203.7,177.4,199.1z"/>
		<path fill="#FF5F79" d="M220,150.9c-0.8,0.7-1.5,1.3-2.4,2C218.4,152.3,219.2,151.6,220,150.9z"/>
		<path fill="#CA2332" d="M208.3,115.4c-7.1-0.9-13.8,1.9-18.1,6.8c-0.6,1.1-1.4,2.1-2.2,3c-1.5,2.4-2.4,5.1-2.8,8.1
			c-0.6,4.7,0.4,9.2,2.6,13c3.1,5.4,8.6,9.3,15.3,10.1c5.4,0.7,10.5-0.7,14.6-3.6c0.8-0.6,1.6-1.3,2.4-2c0.1-0.1,0.3-0.2,0.4-0.4
			c2.9-3,5-6.8,5.7-11.2l0.2-1.5C227.3,126.8,219.4,116.8,208.3,115.4z"/>
	</g>
	
		<ellipse transform="matrix(4.800222e-02 -0.9988 0.9988 4.800222e-02 10.3686 57.797)" fill="none" stroke="#CA2332" stroke-width="2" stroke-miterlimit="10" cx="35.5" cy="23.5" rx="22.5" ry="22.5"/>
	
		<ellipse transform="matrix(0.5164 -0.8563 0.8563 0.5164 47.3302 338.6283)" fill="none" stroke="#CA2332" stroke-width="2" stroke-miterlimit="10" cx="323.5" cy="127.4" rx="22.5" ry="22.5"/>
	
		<ellipse transform="matrix(0.6529 -0.7574 0.7574 0.6529 -35.6136 62.0092)" fill="#CA2332" cx="49.9" cy="69.9" rx="9.6" ry="9.6"/>
	
		<ellipse transform="matrix(0.649 -0.7608 0.7608 0.649 -65.566 327.7779)" fill="#2C6866" cx="322.4" cy="234.9" rx="9.6" ry="9.6"/>
	<g>
		<path fill="#FFFFFF" d="M91.4,192c1,0,1.9,0.8,1.9,1.8c0,1-0.8,1.9-1.8,1.9c-1,0-1.9-0.8-1.9-1.8C89.6,192.9,90.4,192.1,91.4,192z
			 M91.8,202.5c1,0,1.9,0.8,1.9,1.8c0,1-0.8,1.9-1.8,1.9c-1,0-1.9-0.8-1.9-1.8C90,203.4,90.8,202.6,91.8,202.5z M92.1,213
			c1,0,1.9,0.8,1.9,1.8c0,1-0.8,1.9-1.8,1.9c-1,0-1.9-0.8-1.9-1.8C90.3,213.9,91.1,213.1,92.1,213z M12.2,219.3
			c-1,0-1.9-0.8-1.9-1.8c0-1,0.8-1.9,1.8-1.9c1,0,1.9,0.8,1.9,1.8C14,218.4,13.2,219.2,12.2,219.3z M11.9,208.8
			c-1,0-1.9-0.8-1.9-1.8c0-1,0.8-1.9,1.8-1.9c1,0,1.9,0.8,1.9,1.8S12.9,208.7,11.9,208.8z M11.6,198.3c-1,0-1.9-0.8-1.9-1.8
			c0-1,0.8-1.9,1.8-1.9c1,0,1.9,0.8,1.9,1.8C13.4,197.4,12.6,198.2,11.6,198.3z M24,229.4c-1,0-1.9-0.8-1.9-1.8c0-1,0.8-1.9,1.8-1.9
			c1,0,1.9,0.8,1.9,1.8C25.8,228.5,25,229.4,24,229.4z M23.7,218.9c-1,0-1.9-0.8-1.9-1.8s0.8-1.9,1.8-1.9c1,0,1.9,0.8,1.9,1.8
			S24.7,218.9,23.7,218.9z M23.3,208.4c-1,0-1.9-0.8-1.9-1.8c0-1,0.8-1.9,1.8-1.9c1,0,1.9,0.8,1.9,1.8
			C25.1,207.5,24.3,208.4,23.3,208.4z M23,197.9c-1,0-1.9-0.8-1.9-1.8c0-1,0.8-1.9,1.8-1.9c1,0,1.9,0.8,1.9,1.8
			C24.8,197,24,197.9,23,197.9z M22.7,187.4c-1,0-1.9-0.8-1.9-1.8c0-1,0.8-1.9,1.8-1.9s1.9,0.8,1.9,1.8S23.7,187.4,22.7,187.4z
			 M35.8,239.5c-1,0-1.9-0.8-1.9-1.8c0-1,0.8-1.9,1.8-1.9s1.9,0.8,1.9,1.8C37.6,238.7,36.8,239.5,35.8,239.5z M35.4,229
			c-1,0-1.9-0.8-1.9-1.8c0-1,0.8-1.9,1.8-1.9c1,0,1.9,0.8,1.9,1.8C37.2,228.2,36.4,229,35.4,229z M35.1,218.5c-1,0-1.9-0.8-1.9-1.8
			c0-1,0.8-1.9,1.8-1.9c1,0,1.9,0.8,1.9,1.8C36.9,217.7,36.1,218.5,35.1,218.5z M34.8,208c-1,0-1.9-0.8-1.9-1.8s0.8-1.9,1.8-1.9
			c1,0,1.9,0.8,1.9,1.8C36.6,207.2,35.8,208,34.8,208z M34.4,197.5c-1,0-1.9-0.8-1.9-1.8c0-1,0.8-1.9,1.8-1.9c1,0,1.9,0.8,1.9,1.8
			C36.2,196.7,35.4,197.5,34.4,197.5z M34.1,187c-1,0-1.9-0.8-1.9-1.8c0-1,0.8-1.9,1.8-1.9c1,0,1.9,0.8,1.9,1.8
			C35.9,186.2,35.1,187,34.1,187z M33.7,176.5c-1,0-1.9-0.8-1.9-1.8c0-1,0.8-1.9,1.8-1.9c1,0,1.9,0.8,1.9,1.8
			C35.5,175.7,34.8,176.5,33.7,176.5z M47.2,239.2c-1,0-1.9-0.8-1.9-1.8c0-1,0.8-1.9,1.8-1.9c1,0,1.9,0.8,1.9,1.8
			C49,238.3,48.2,239.1,47.2,239.2z M46.9,228.7c-1,0-1.9-0.8-1.9-1.8c0-1,0.8-1.9,1.8-1.9c1,0,1.9,0.8,1.9,1.8
			C48.7,227.8,47.9,228.6,46.9,228.7z M46.5,218.2c-1,0-1.9-0.8-1.9-1.8c0-1,0.8-1.9,1.8-1.9c1,0,1.9,0.8,1.9,1.8
			C48.3,217.3,47.5,218.1,46.5,218.2z M46.2,207.7c-1,0-1.9-0.8-1.9-1.8c0-1,0.8-1.9,1.8-1.9c1,0,1.9,0.8,1.9,1.8
			S47.2,207.6,46.2,207.7z M45.8,197.2c-1,0-1.9-0.8-1.9-1.8c0-1,0.8-1.9,1.8-1.9c1,0,1.9,0.8,1.9,1.8
			C47.7,196.3,46.9,197.1,45.8,197.2z M45.5,186.7c-1,0-1.9-0.8-1.9-1.8c0-1,0.8-1.9,1.8-1.9s1.9,0.8,1.9,1.8
			C47.3,185.8,46.5,186.6,45.5,186.7z M45.2,176.2c-1,0-1.9-0.8-1.9-1.8c0-1,0.8-1.9,1.8-1.9c1,0,1.9,0.8,1.9,1.8
			C47,175.3,46.2,176.1,45.2,176.2z M58.6,238.8c-1,0-1.9-0.8-1.9-1.8c0-1,0.8-1.9,1.8-1.9c1,0,1.9,0.8,1.9,1.8
			C60.4,237.9,59.6,238.8,58.6,238.8z M58.3,228.3c-1,0-1.9-0.8-1.9-1.8c0-1,0.8-1.9,1.8-1.9c1,0,1.9,0.8,1.9,1.8
			C60.1,227.4,59.3,228.3,58.3,228.3z M58,217.8c-1,0-1.9-0.8-1.9-1.8c0-1,0.8-1.9,1.8-1.9c1,0,1.9,0.8,1.9,1.8
			C59.8,216.9,59,217.8,58,217.8z M57.6,207.3c-1,0-1.9-0.8-1.9-1.8s0.8-1.9,1.8-1.9c1,0,1.9,0.8,1.9,1.8
			C59.4,206.4,58.6,207.3,57.6,207.3z M57.3,196.8c-1,0-1.9-0.8-1.9-1.8c0-1,0.8-1.9,1.8-1.9c1,0,1.9,0.8,1.9,1.8
			C59.1,195.9,58.3,196.8,57.3,196.8z M56.9,186.3c-1,0-1.9-0.8-1.9-1.8c0-1,0.8-1.9,1.8-1.9s1.9,0.8,1.9,1.8
			C58.7,185.4,58,186.3,56.9,186.3z M56.6,175.8c-1,0-1.9-0.8-1.9-1.8c0-1,0.8-1.9,1.8-1.9c1,0,1.9,0.8,1.9,1.8
			C58.4,174.9,57.6,175.8,56.6,175.8z M70.1,238.4c-1,0-1.9-0.8-1.9-1.8s0.8-1.9,1.8-1.9s1.9,0.8,1.9,1.8
			C71.9,237.6,71.1,238.4,70.1,238.4z M69.7,227.9c-1,0-1.9-0.8-1.9-1.8c0-1,0.8-1.9,1.8-1.9c1,0,1.9,0.8,1.9,1.8
			C71.5,227.1,70.7,227.9,69.7,227.9z M69.4,217.4c-1,0-1.9-0.8-1.9-1.8c0-1,0.8-1.9,1.8-1.9c1,0,1.9,0.8,1.9,1.8
			C71.2,216.6,70.4,217.4,69.4,217.4z M69,206.9c-1,0-1.9-0.8-1.9-1.8c0-1,0.8-1.9,1.8-1.9c1,0,1.9,0.8,1.9,1.8
			C70.8,206.1,70.1,206.9,69,206.9z M68.7,196.4c-1,0-1.9-0.8-1.9-1.8c0-1,0.8-1.9,1.8-1.9c1,0,1.9,0.8,1.9,1.8
			C70.5,195.6,69.7,196.4,68.7,196.4z M68.4,185.9c-1,0-1.9-0.8-1.9-1.8c0-1,0.8-1.9,1.8-1.9c1,0,1.9,0.8,1.9,1.8
			C70.2,185.1,69.4,185.9,68.4,185.9z M68,175.4c-1,0-1.9-0.8-1.9-1.8c0-1,0.8-1.9,1.8-1.9c1,0,1.9,0.8,1.9,1.8
			C69.8,174.6,69,175.4,68,175.4z M81.1,227.6c-1,0-1.9-0.8-1.9-1.8c0-1,0.8-1.9,1.8-1.9c1,0,1.9,0.8,1.9,1.8
			C83,226.7,82.2,227.5,81.1,227.6z M80.8,217.1c-1,0-1.9-0.8-1.9-1.8c0-1,0.8-1.9,1.8-1.9c1,0,1.9,0.8,1.9,1.8
			C82.6,216.2,81.8,217,80.8,217.1z M80.5,206.6c-1,0-1.9-0.8-1.9-1.8c0-1,0.8-1.9,1.8-1.9c1,0,1.9,0.8,1.9,1.8
			C82.3,205.7,81.5,206.5,80.5,206.6z M80.1,196.1c-1,0-1.9-0.8-1.9-1.8c0-1,0.8-1.9,1.8-1.9c1,0,1.9,0.8,1.9,1.8
			C81.9,195.2,81.1,196,80.1,196.1z M79.8,185.6c-1,0-1.9-0.8-1.9-1.8c0-1,0.8-1.9,1.8-1.9c1,0,1.9,0.8,1.9,1.8
			C81.6,184.7,80.8,185.5,79.8,185.6z"/>
		<path fill="#FFFFFF" d="M33.7,166c0.3-0.1,0.6-0.2,0.8-0.4C34.2,165.8,34,165.9,33.7,166z"/>
		<path fill="#FFFFFF" d="M44.8,165.7c1,0,1.8-0.9,1.8-1.9c0-0.6-0.4-1.2-0.8-1.5c-0.8,0.1-1.6,0.3-2.4,0.4
			c-0.2,0.3-0.4,0.7-0.4,1.2C43,164.9,43.8,165.7,44.8,165.7z"/>
		<path fill="#FFFFFF" d="M54.4,163.5c0,1,0.9,1.8,1.9,1.8c1,0,1.8-0.9,1.8-1.9c0-0.6-0.3-1-0.7-1.4c-0.7-0.1-1.3-0.1-2-0.2
			C54.7,162.2,54.4,162.8,54.4,163.5z"/>
		<path fill="#FFFFFF" d="M67.7,164.9c0.3,0,0.5-0.1,0.7-0.2c-0.8-0.3-1.6-0.6-2.4-0.9C66.3,164.5,66.9,165,67.7,164.9z"/>
		<path fill="#FFFFFF" d="M22.3,176.9c1,0,1.8-0.9,1.8-1.9c0-0.8-0.6-1.4-1.3-1.7c-0.8,0.7-1.6,1.5-2.3,2.3
			C20.7,176.4,21.5,176.9,22.3,176.9z"/>
		<path fill="#FFFFFF" d="M33.6,172.9c-1,0-1.8,0.9-1.8,1.9c0,1,0.9,1.8,1.9,1.8c1,0,1.8-0.9,1.8-1.9
			C35.5,173.6,34.6,172.8,33.6,172.9z"/>
		<path fill="#FFFFFF" d="M45.1,172.5c-1,0-1.8,0.9-1.8,1.9c0,1,0.9,1.8,1.9,1.8c1,0,1.8-0.9,1.8-1.9
			C46.9,173.3,46.1,172.5,45.1,172.5z"/>
		<path fill="#FFFFFF" d="M56.5,172.1c-1,0-1.8,0.9-1.8,1.9c0,1,0.9,1.8,1.9,1.8c1,0,1.8-0.9,1.8-1.9
			C58.3,172.9,57.5,172.1,56.5,172.1z"/>
		<path fill="#FFFFFF" d="M67.9,171.8c-1,0-1.8,0.9-1.8,1.9c0,1,0.9,1.8,1.9,1.8c1,0,1.8-0.9,1.8-1.9
			C69.8,172.5,68.9,171.7,67.9,171.8z"/>
		<path fill="#FFFFFF" d="M77.6,173.3c0,1,0.9,1.8,1.9,1.8c1,0,1.8-0.9,1.8-1.9c0-0.3-0.1-0.7-0.3-0.9c-0.3-0.2-0.6-0.5-0.9-0.7
			c-0.2-0.1-0.5-0.1-0.7-0.1C78.3,171.4,77.5,172.3,77.6,173.3z"/>
		<path fill="#FFFFFF" d="M22.5,183.7c-1,0-1.8,0.9-1.8,1.9c0,1,0.9,1.8,1.9,1.8c1,0,1.8-0.9,1.8-1.9S23.5,183.7,22.5,183.7z"/>
		<path fill="#FFFFFF" d="M34,183.4c-1,0-1.8,0.9-1.8,1.9c0,1,0.9,1.8,1.9,1.8c1,0,1.8-0.9,1.8-1.9C35.8,184.1,35,183.3,34,183.4z"
			/>
		<path fill="#FFFFFF" d="M45.4,183c-1,0-1.8,0.9-1.8,1.9c0,1,0.9,1.8,1.9,1.8c1,0,1.8-0.9,1.8-1.9C47.3,183.8,46.4,183,45.4,183z"
			/>
		<path fill="#FFFFFF" d="M56.8,182.6c-1,0-1.8,0.9-1.8,1.9c0,1,0.9,1.8,1.9,1.8c1,0,1.8-0.9,1.8-1.9
			C58.7,183.4,57.8,182.6,56.8,182.6z"/>
		<path fill="#FFFFFF" d="M68.3,182.3c-1,0-1.8,0.9-1.8,1.9c0,1,0.9,1.8,1.9,1.8c1,0,1.8-0.9,1.8-1.9
			C70.1,183,69.3,182.2,68.3,182.3z"/>
		<path fill="#FFFFFF" d="M79.7,181.9c-1,0-1.8,0.9-1.8,1.9c0,1,0.9,1.8,1.9,1.8c1,0,1.8-0.9,1.8-1.9
			C81.5,182.7,80.7,181.9,79.7,181.9z"/>
		<path fill="#FFFFFF" d="M91.2,185.2C91.3,185.2,91.3,185.2,91.2,185.2c-0.4-1-1-1.9-1.6-2.9c-0.2,0.3-0.3,0.7-0.3,1.1
			C89.4,184.4,90.2,185.2,91.2,185.2z"/>
		<path fill="#FFFFFF" d="M11.4,194.6c-1,0-1.8,0.9-1.8,1.9c0,1,0.9,1.8,1.9,1.8c1,0,1.8-0.9,1.8-1.9
			C13.3,195.4,12.5,194.6,11.4,194.6z"/>
		<path fill="#FFFFFF" d="M22.9,194.2c-1,0-1.8,0.9-1.8,1.9c0,1,0.9,1.8,1.9,1.8c1,0,1.8-0.9,1.8-1.9
			C24.7,195,23.9,194.2,22.9,194.2z"/>
		<path fill="#FFFFFF" d="M34.3,193.9c-1,0-1.8,0.9-1.8,1.9c0,1,0.9,1.8,1.9,1.8c1,0,1.8-0.9,1.8-1.9
			C36.2,194.6,35.3,193.8,34.3,193.9z"/>
		<path fill="#FFFFFF" d="M45.7,193.5c-1,0-1.8,0.9-1.8,1.9c0,1,0.9,1.8,1.9,1.8c1,0,1.8-0.9,1.8-1.9
			C47.6,194.3,46.7,193.5,45.7,193.5z"/>
		<path fill="#FFFFFF" d="M57.2,193.1c-1,0-1.8,0.9-1.8,1.9c0,1,0.9,1.8,1.9,1.8c1,0,1.8-0.9,1.8-1.9
			C59,193.9,58.2,193.1,57.2,193.1z"/>
		<path fill="#FFFFFF" d="M68.6,192.8c-1,0-1.8,0.9-1.8,1.9c0,1,0.9,1.8,1.9,1.8c1,0,1.8-0.9,1.8-1.9
			C70.4,193.5,69.6,192.7,68.6,192.8z"/>
		<path fill="#FFFFFF" d="M80,192.4c-1,0-1.8,0.9-1.8,1.9c0,1,0.9,1.8,1.9,1.8c1,0,1.8-0.9,1.8-1.9C81.9,193.2,81,192.4,80,192.4z"
			/>
		<path fill="#FFFFFF" d="M91.6,195.7c1,0,1.8-0.9,1.8-1.9c0-1-0.9-1.8-1.9-1.8c-1,0-1.8,0.9-1.8,1.9
			C89.7,194.9,90.6,195.7,91.6,195.7z"/>
		<path fill="#FFFFFF" d="M11.8,205.1c-1,0-1.8,0.9-1.8,1.9c0,1,0.9,1.8,1.9,1.8c1,0,1.8-0.9,1.8-1.9S12.8,205.1,11.8,205.1z"/>
		<path fill="#FFFFFF" d="M23.2,204.7c-1,0-1.8,0.9-1.8,1.9c0,1,0.9,1.8,1.9,1.8c1,0,1.8-0.9,1.8-1.9
			C25.1,205.5,24.2,204.7,23.2,204.7z"/>
		<path fill="#FFFFFF" d="M34.6,204.4c-1,0-1.8,0.9-1.8,1.9s0.9,1.8,1.9,1.8c1,0,1.8-0.9,1.8-1.9C36.5,205.1,35.6,204.3,34.6,204.4z
			"/>
		<path fill="#FFFFFF" d="M46.1,204c-1,0-1.8,0.9-1.8,1.9c0,1,0.9,1.8,1.9,1.8c1,0,1.8-0.9,1.8-1.9S47.1,204,46.1,204z"/>
		<path fill="#FFFFFF" d="M57.5,203.6c-1,0-1.8,0.9-1.8,1.9s0.9,1.8,1.9,1.8c1,0,1.8-0.9,1.8-1.9C59.4,204.4,58.5,203.6,57.5,203.6z
			"/>
		<path fill="#FFFFFF" d="M68.9,203.3c-1,0-1.8,0.9-1.8,1.9c0,1,0.9,1.8,1.9,1.8c1,0,1.8-0.9,1.8-1.9
			C70.8,204,69.9,203.2,68.9,203.3z"/>
		<path fill="#FFFFFF" d="M80.4,202.9c-1,0-1.8,0.9-1.8,1.9c0,1,0.9,1.8,1.9,1.8c1,0,1.8-0.9,1.8-1.9
			C82.2,203.7,81.4,202.9,80.4,202.9z"/>
		<path fill="#FFFFFF" d="M91.9,206.2c1,0,1.8-0.9,1.8-1.9c0-1-0.9-1.8-1.9-1.8c-1,0-1.8,0.9-1.8,1.9
			C90,205.4,90.9,206.2,91.9,206.2z"/>
		<path fill="#FFFFFF" d="M12.1,215.6c-1,0-1.8,0.9-1.8,1.9c0,1,0.9,1.8,1.9,1.8c1,0,1.8-0.9,1.8-1.9
			C14,216.4,13.1,215.6,12.1,215.6z"/>
		<path fill="#FFFFFF" d="M23.5,215.2c-1,0-1.8,0.9-1.8,1.9s0.9,1.8,1.9,1.8c1,0,1.8-0.9,1.8-1.9S24.6,215.2,23.5,215.2z"/>
		<path fill="#FFFFFF" d="M35,214.9c-1,0-1.8,0.9-1.8,1.9c0,1,0.9,1.8,1.9,1.8c1,0,1.8-0.9,1.8-1.9C36.8,215.6,36,214.8,35,214.9z"
			/>
		<path fill="#FFFFFF" d="M46.4,214.5c-1,0-1.8,0.9-1.8,1.9c0,1,0.9,1.8,1.9,1.8c1,0,1.8-0.9,1.8-1.9
			C48.3,215.3,47.4,214.5,46.4,214.5z"/>
		<path fill="#FFFFFF" d="M57.8,214.1c-1,0-1.8,0.9-1.8,1.9c0,1,0.9,1.8,1.9,1.8c1,0,1.8-0.9,1.8-1.9
			C59.7,214.9,58.8,214.1,57.8,214.1z"/>
		<path fill="#FFFFFF" d="M69.3,213.8c-1,0-1.8,0.9-1.8,1.9c0,1,0.9,1.8,1.9,1.8c1,0,1.8-0.9,1.8-1.9
			C71.1,214.5,70.3,213.7,69.3,213.8z"/>
		<path fill="#FFFFFF" d="M80.7,213.4c-1,0-1.8,0.9-1.8,1.9c0,1,0.9,1.8,1.9,1.8c1,0,1.8-0.9,1.8-1.9
			C82.5,214.2,81.7,213.4,80.7,213.4z"/>
		<path fill="#FFFFFF" d="M92.2,216.7c1,0,1.8-0.9,1.8-1.9c0-1-0.9-1.8-1.9-1.8c-1,0-1.8,0.9-1.8,1.9
			C90.4,215.9,91.2,216.7,92.2,216.7z"/>
		<path fill="#FFFFFF" d="M23.9,225.7c-1,0-1.8,0.9-1.8,1.9c0,1,0.9,1.8,1.9,1.8c1,0,1.8-0.9,1.8-1.9
			C25.7,226.5,24.9,225.7,23.9,225.7z"/>
		<path fill="#FFFFFF" d="M35.3,225.4c-1,0-1.8,0.9-1.8,1.9c0,1,0.9,1.8,1.9,1.8c1,0,1.8-0.9,1.8-1.9
			C37.2,226.1,36.3,225.3,35.3,225.4z"/>
		<path fill="#FFFFFF" d="M46.7,225c-1,0-1.8,0.9-1.8,1.9c0,1,0.9,1.8,1.9,1.8c1,0,1.8-0.9,1.8-1.9C48.6,225.8,47.8,225,46.7,225z"
			/>
		<path fill="#FFFFFF" d="M58.2,224.6c-1,0-1.8,0.9-1.8,1.9c0,1,0.9,1.8,1.9,1.8c1,0,1.8-0.9,1.8-1.9
			C60,225.4,59.2,224.6,58.2,224.6z"/>
		<path fill="#FFFFFF" d="M69.6,224.3c-1,0-1.8,0.9-1.8,1.9c0,1,0.9,1.8,1.9,1.8c1,0,1.8-0.9,1.8-1.9
			C71.5,225,70.6,224.2,69.6,224.3z"/>
		<path fill="#FFFFFF" d="M81,223.9c-1,0-1.8,0.9-1.8,1.9c0,1,0.9,1.8,1.9,1.8c1,0,1.8-0.9,1.8-1.9C82.9,224.7,82,223.9,81,223.9z"
			/>
		<path fill="#FFFFFF" d="M90.7,225.4c0,0.4,0.2,0.8,0.4,1.1c0.5-1,1-2,1.5-3c0,0-0.1,0-0.1,0C91.4,223.6,90.7,224.4,90.7,225.4z"/>
		<path fill="#FFFFFF" d="M26.1,238c0-1-0.9-1.8-1.9-1.8c-0.9,0-1.6,0.7-1.7,1.5c0.8,0.7,1.6,1.4,2.4,2.1
			C25.6,239.5,26.1,238.8,26.1,238z"/>
		<path fill="#FFFFFF" d="M35.6,235.9c-1,0-1.8,0.9-1.8,1.9c0,1,0.9,1.8,1.9,1.8c1,0,1.8-0.9,1.8-1.9
			C37.5,236.6,36.7,235.8,35.6,235.9z"/>
		<path fill="#FFFFFF" d="M47.1,235.5c-1,0-1.8,0.9-1.8,1.9c0,1,0.9,1.8,1.9,1.8c1,0,1.8-0.9,1.8-1.9
			C48.9,236.3,48.1,235.5,47.1,235.5z"/>
		<path fill="#FFFFFF" d="M58.5,235.1c-1,0-1.8,0.9-1.8,1.9c0,1,0.9,1.8,1.9,1.8c1,0,1.8-0.9,1.8-1.9
			C60.4,235.9,59.5,235.1,58.5,235.1z"/>
		<path fill="#FFFFFF" d="M69.9,234.8c-1,0-1.8,0.9-1.8,1.9s0.9,1.8,1.9,1.8c1,0,1.8-0.9,1.8-1.9C71.8,235.5,70.9,234.7,69.9,234.8z
			"/>
		<path fill="#FFFFFF" d="M81.4,234.4c-1,0-1.8,0.9-1.8,1.9c0,1,0.9,1.8,1.9,1.8c0.4,0,0.7-0.1,1-0.3c0.1-0.1,0.3-0.3,0.4-0.4
			c0.3-0.3,0.4-0.7,0.4-1.2C83.2,235.2,82.4,234.4,81.4,234.4z"/>
		<path fill="#FFFFFF" d="M37.3,246.9c-0.3-0.3-0.8-0.5-1.3-0.5C36.5,246.6,36.9,246.7,37.3,246.9z"/>
		<path fill="#FFFFFF" d="M49.3,247.8c0-1-0.9-1.8-1.9-1.8c-1,0-1.8,0.9-1.8,1.9c0,0.5,0.2,0.9,0.5,1.2c0.8,0.1,1.5,0.2,2.3,0.3
			C49,249.1,49.3,248.5,49.3,247.8z"/>
		<path fill="#FFFFFF" d="M60.7,247.4c0-1-0.9-1.8-1.9-1.8c-1,0-1.8,0.9-1.8,1.9c0,0.8,0.5,1.4,1.2,1.7c0.6-0.1,1.2-0.2,1.7-0.3
			C60.5,248.6,60.8,248,60.7,247.4z"/>
		<path fill="#FFFFFF" d="M68.6,246.5c0.8-0.3,1.7-0.7,2.5-1.1c-0.2-0.1-0.5-0.2-0.8-0.2C69.5,245.3,68.8,245.8,68.6,246.5z"/>
	</g>
	<g>
		<path fill="#2C6866" d="M316.9,38c0.9,0,1.6,0.7,1.6,1.5c0,0.9-0.7,1.6-1.5,1.6c-0.9,0-1.6-0.7-1.6-1.5
			C315.3,38.7,316,38,316.9,38z M317.1,47c0.9,0,1.6,0.7,1.6,1.5c0,0.9-0.7,1.6-1.5,1.6s-1.6-0.7-1.6-1.5
			C315.6,47.8,316.3,47,317.1,47z M317.4,56c0.9,0,1.6,0.7,1.6,1.5c0,0.9-0.7,1.6-1.5,1.6c-0.9,0-1.6-0.7-1.6-1.5
			C315.9,56.8,316.6,56.1,317.4,56z M248.7,61.4c-0.9,0-1.6-0.7-1.6-1.5c0-0.9,0.7-1.6,1.5-1.6c0.9,0,1.6,0.7,1.6,1.5
			C250.3,60.6,249.6,61.4,248.7,61.4z M248.4,52.4c-0.9,0-1.6-0.7-1.6-1.5c0-0.9,0.7-1.6,1.5-1.6c0.9,0,1.6,0.7,1.6,1.5
			C250,51.6,249.3,52.3,248.4,52.4z M248.1,43.3c-0.9,0-1.6-0.7-1.6-1.5c0-0.9,0.7-1.6,1.5-1.6c0.9,0,1.6,0.7,1.6,1.5
			C249.7,42.6,249,43.3,248.1,43.3z M258.8,70.1c-0.9,0-1.6-0.7-1.6-1.5s0.7-1.6,1.5-1.6s1.6,0.7,1.6,1.5
			C260.4,69.3,259.7,70.1,258.8,70.1z M258.5,61.1c-0.9,0-1.6-0.7-1.6-1.5c0-0.9,0.7-1.6,1.5-1.6c0.9,0,1.6,0.7,1.6,1.5
			C260.1,60.3,259.4,61,258.5,61.1z M258.3,52c-0.9,0-1.6-0.7-1.6-1.5c0-0.9,0.7-1.6,1.5-1.6c0.9,0,1.6,0.7,1.6,1.5
			C259.8,51.3,259.1,52,258.3,52z M258,43c-0.9,0-1.6-0.7-1.6-1.5c0-0.9,0.7-1.6,1.5-1.6c0.9,0,1.6,0.7,1.6,1.5
			C259.5,42.2,258.8,43,258,43z M257.7,34c-0.9,0-1.6-0.7-1.6-1.5c0-0.9,0.7-1.6,1.5-1.6c0.9,0,1.6,0.7,1.6,1.5
			C259.2,33.2,258.5,33.9,257.7,34z M269,78.8c-0.9,0-1.6-0.7-1.6-1.5c0-0.9,0.7-1.6,1.5-1.6c0.9,0,1.6,0.7,1.6,1.5
			C270.5,78.1,269.8,78.8,269,78.8z M268.7,69.8c-0.9,0-1.6-0.7-1.6-1.5c0-0.9,0.7-1.6,1.5-1.6c0.9,0,1.6,0.7,1.6,1.5
			C270.2,69,269.5,69.8,268.7,69.8z M268.4,60.8c-0.9,0-1.6-0.7-1.6-1.5c0-0.9,0.7-1.6,1.5-1.6c0.9,0,1.6,0.7,1.6,1.5
			C269.9,60,269.2,60.7,268.4,60.8z M268.1,51.7c-0.9,0-1.6-0.7-1.6-1.5c0-0.9,0.7-1.6,1.5-1.6s1.6,0.7,1.6,1.5
			C269.6,51,269,51.7,268.1,51.7z M267.8,42.7c-0.9,0-1.6-0.7-1.6-1.5c0-0.9,0.7-1.6,1.5-1.6c0.9,0,1.6,0.7,1.6,1.5
			C269.4,41.9,268.7,42.7,267.8,42.7z M267.5,33.7c-0.9,0-1.6-0.7-1.6-1.5c0-0.9,0.7-1.6,1.5-1.6c0.9,0,1.6,0.7,1.6,1.5
			C269.1,32.9,268.4,33.6,267.5,33.7z M267.2,24.6c-0.9,0-1.6-0.7-1.6-1.5c0-0.9,0.7-1.6,1.5-1.6c0.9,0,1.6,0.7,1.6,1.5
			C268.8,23.9,268.1,24.6,267.2,24.6z M278.8,78.5c-0.9,0-1.6-0.7-1.6-1.5c0-0.9,0.7-1.6,1.5-1.6c0.9,0,1.6,0.7,1.6,1.5
			C280.3,77.7,279.7,78.5,278.8,78.5z M278.5,69.5c-0.9,0-1.6-0.7-1.6-1.5c0-0.9,0.7-1.6,1.5-1.6s1.6,0.7,1.6,1.5
			S279.4,69.4,278.5,69.5z M278.2,60.4c-0.9,0-1.6-0.7-1.6-1.5c0-0.9,0.7-1.6,1.5-1.6c0.9,0,1.6,0.7,1.6,1.5
			C279.8,59.7,279.1,60.4,278.2,60.4z M277.9,51.4c-0.9,0-1.6-0.7-1.6-1.5s0.7-1.6,1.5-1.6c0.9,0,1.6,0.7,1.6,1.5
			C279.5,50.7,278.8,51.4,277.9,51.4z M277.6,42.4c-0.9,0-1.6-0.7-1.6-1.5c0-0.9,0.7-1.6,1.5-1.6s1.6,0.7,1.6,1.5
			C279.2,41.6,278.5,42.3,277.6,42.4z M277.3,33.3c-0.9,0-1.6-0.7-1.6-1.5c0-0.9,0.7-1.6,1.5-1.6c0.9,0,1.6,0.7,1.6,1.5
			C278.9,32.6,278.2,33.3,277.3,33.3z M277.1,24.3c-0.9,0-1.6-0.7-1.6-1.5c0-0.9,0.7-1.6,1.5-1.6c0.9,0,1.6,0.7,1.6,1.5
			C278.6,23.6,277.9,24.3,277.1,24.3z M288.6,78.2c-0.9,0-1.6-0.7-1.6-1.5c0-0.9,0.7-1.6,1.5-1.6c0.9,0,1.6,0.7,1.6,1.5
			C290.2,77.4,289.5,78.2,288.6,78.2z M288.3,69.2c-0.9,0-1.6-0.7-1.6-1.5c0-0.9,0.7-1.6,1.5-1.6c0.9,0,1.6,0.7,1.6,1.5
			C289.9,68.4,289.2,69.1,288.3,69.2z M288,60.1c-0.9,0-1.6-0.7-1.6-1.5c0-0.9,0.7-1.6,1.5-1.6c0.9,0,1.6,0.7,1.6,1.5
			C289.6,59.4,288.9,60.1,288,60.1z M287.8,51.1c-0.9,0-1.6-0.7-1.6-1.5c0-0.9,0.7-1.6,1.5-1.6c0.9,0,1.6,0.7,1.6,1.5
			C289.3,50.3,288.6,51.1,287.8,51.1z M287.5,42.1c-0.9,0-1.6-0.7-1.6-1.5c0-0.9,0.7-1.6,1.5-1.6c0.9,0,1.6,0.7,1.6,1.5
			C289,41.3,288.3,42,287.5,42.1z M287.2,33c-0.9,0-1.6-0.7-1.6-1.5c0-0.9,0.7-1.6,1.5-1.6c0.9,0,1.6,0.7,1.6,1.5
			C288.7,32.3,288,33,287.2,33z M286.9,24c-0.9,0-1.6-0.7-1.6-1.5s0.7-1.6,1.5-1.6c0.9,0,1.6,0.7,1.6,1.5S287.8,24,286.9,24z
			 M298.5,77.9c-0.9,0-1.6-0.7-1.6-1.5c0-0.9,0.7-1.6,1.5-1.6c0.9,0,1.6,0.7,1.6,1.5C300,77.1,299.3,77.8,298.5,77.9z M298.2,68.8
			c-0.9,0-1.6-0.7-1.6-1.5c0-0.9,0.7-1.6,1.5-1.6s1.6,0.7,1.6,1.5S299,68.8,298.2,68.8z M297.9,59.8c-0.9,0-1.6-0.7-1.6-1.5
			c0-0.9,0.7-1.6,1.5-1.6c0.9,0,1.6,0.7,1.6,1.5C299.4,59.1,298.7,59.8,297.9,59.8z M297.6,50.8c-0.9,0-1.6-0.7-1.6-1.5
			c0-0.9,0.7-1.6,1.5-1.6c0.9,0,1.6,0.7,1.6,1.5C299.1,50,298.5,50.7,297.6,50.8z M297.3,41.7c-0.9,0-1.6-0.7-1.6-1.5
			c0-0.9,0.7-1.6,1.5-1.6s1.6,0.7,1.6,1.5C298.8,41,298.2,41.7,297.3,41.7z M297,32.7c-0.9,0-1.6-0.7-1.6-1.5c0-0.9,0.7-1.6,1.5-1.6
			c0.9,0,1.6,0.7,1.6,1.5C298.6,32,297.9,32.7,297,32.7z M296.7,23.7c-0.9,0-1.6-0.7-1.6-1.5c0-0.9,0.7-1.6,1.5-1.6
			c0.9,0,1.6,0.7,1.6,1.5C298.3,22.9,297.6,23.7,296.7,23.7z M308,68.5c-0.9,0-1.6-0.7-1.6-1.5c0-0.9,0.7-1.6,1.5-1.6
			c0.9,0,1.6,0.7,1.6,1.5C309.5,67.8,308.9,68.5,308,68.5z M307.7,59.5c-0.9,0-1.6-0.7-1.6-1.5c0-0.9,0.7-1.6,1.5-1.6
			c0.9,0,1.6,0.7,1.6,1.5C309.3,58.7,308.6,59.5,307.7,59.5z M307.4,50.5c-0.9,0-1.6-0.7-1.6-1.5c0-0.9,0.7-1.6,1.5-1.6
			c0.9,0,1.6,0.7,1.6,1.5C309,49.7,308.3,50.4,307.4,50.5z M307.1,41.4c-0.9,0-1.6-0.7-1.6-1.5c0-0.9,0.7-1.6,1.5-1.6
			c0.9,0,1.6,0.7,1.6,1.5C308.7,40.7,308,41.4,307.1,41.4z M306.8,32.4c-0.9,0-1.6-0.7-1.6-1.5c0-0.9,0.7-1.6,1.5-1.6
			c0.9,0,1.6,0.7,1.6,1.5C308.4,31.6,307.7,32.4,306.8,32.4z"/>
		<path fill="#2C6866" d="M267.2,15.6c0.3,0,0.5-0.2,0.7-0.3C267.6,15.3,267.4,15.5,267.2,15.6z"/>
		<path fill="#2C6866" d="M276.8,15.3c0.9,0,1.6-0.8,1.5-1.6c0-0.5-0.3-1-0.7-1.3c-0.7,0.1-1.4,0.2-2.1,0.4c-0.2,0.3-0.3,0.6-0.3,1
			C275.2,14.6,275.9,15.3,276.8,15.3z"/>
		<path fill="#2C6866" d="M285,13.4c0,0.9,0.8,1.6,1.6,1.5s1.6-0.8,1.5-1.6c0-0.5-0.2-0.9-0.6-1.2c-0.6-0.1-1.2-0.1-1.7-0.2
			C285.3,12.3,284.9,12.8,285,13.4z"/>
		<path fill="#2C6866" d="M296.4,14.6c0.2,0,0.4-0.1,0.6-0.1c-0.7-0.3-1.4-0.5-2.1-0.7C295.2,14.3,295.8,14.7,296.4,14.6z"/>
		<path fill="#2C6866" d="M257.4,24.9c0.9,0,1.6-0.8,1.5-1.6c0-0.7-0.5-1.2-1.1-1.4c-0.7,0.6-1.3,1.3-2,2
			C256,24.5,256.7,25,257.4,24.9z"/>
		<path fill="#2C6866" d="M267.1,21.5c-0.9,0-1.6,0.8-1.5,1.6c0,0.9,0.8,1.6,1.6,1.5c0.9,0,1.6-0.8,1.5-1.6
			C268.7,22.1,268,21.4,267.1,21.5z"/>
		<path fill="#2C6866" d="M276.9,21.2c-0.9,0-1.6,0.8-1.5,1.6c0,0.9,0.8,1.6,1.6,1.5c0.9,0,1.6-0.8,1.5-1.6
			C278.5,21.8,277.8,21.1,276.9,21.2z"/>
		<path fill="#2C6866" d="M286.8,20.8c-0.9,0-1.6,0.8-1.5,1.6s0.8,1.6,1.6,1.5c0.9,0,1.6-0.8,1.5-1.6S287.7,20.8,286.8,20.8z"/>
		<path fill="#2C6866" d="M296.6,20.5c-0.9,0-1.6,0.8-1.5,1.6c0,0.9,0.8,1.6,1.6,1.5s1.6-0.8,1.5-1.6
			C298.2,21.2,297.5,20.5,296.6,20.5z"/>
		<path fill="#2C6866" d="M304.9,21.8c0,0.9,0.8,1.6,1.6,1.5c0.9,0,1.6-0.8,1.5-1.6c0-0.3-0.1-0.6-0.3-0.8c-0.2-0.2-0.5-0.4-0.7-0.6
			c-0.2-0.1-0.4-0.1-0.6-0.1C305.6,20.2,304.9,21,304.9,21.8z"/>
		<path fill="#2C6866" d="M257.6,30.8c-0.9,0-1.6,0.8-1.5,1.6c0,0.9,0.8,1.6,1.6,1.5c0.9,0,1.6-0.8,1.5-1.6
			C259.2,31.5,258.4,30.8,257.6,30.8z"/>
		<path fill="#2C6866" d="M267.4,30.5c-0.9,0-1.6,0.8-1.5,1.6c0,0.9,0.8,1.6,1.6,1.5c0.9,0,1.6-0.8,1.5-1.6
			C269,31.2,268.3,30.5,267.4,30.5z"/>
		<path fill="#2C6866" d="M277.2,30.2c-0.9,0-1.6,0.8-1.5,1.6c0,0.9,0.8,1.6,1.6,1.5c0.9,0,1.6-0.8,1.5-1.6
			C278.8,30.8,278.1,30.2,277.2,30.2z"/>
		<path fill="#2C6866" d="M287.1,29.9c-0.9,0-1.6,0.8-1.5,1.6c0,0.9,0.8,1.6,1.6,1.5c0.9,0,1.6-0.8,1.5-1.6
			C288.7,30.5,287.9,29.9,287.1,29.9z"/>
		
			<ellipse transform="matrix(0.4317 -0.902 0.902 0.4317 140.6758 285.5541)" fill="#2C6866" cx="297" cy="31.1" rx="1.6" ry="1.6"/>
		<path fill="#2C6866" d="M306.7,29.2c-0.9,0-1.6,0.8-1.5,1.6c0,0.9,0.8,1.6,1.6,1.5s1.6-0.8,1.5-1.6
			C308.3,29.9,307.6,29.2,306.7,29.2z"/>
		<path fill="#2C6866" d="M316.7,32.1C316.7,32.1,316.7,32.1,316.7,32.1c-0.4-0.8-0.8-1.7-1.3-2.5c-0.2,0.3-0.3,0.6-0.3,0.9
			C315.1,31.4,315.8,32.1,316.7,32.1z"/>
		<path fill="#2C6866" d="M248,40.2c-0.9,0-1.6,0.8-1.5,1.6c0,0.9,0.8,1.6,1.6,1.5c0.9,0,1.6-0.8,1.5-1.6
			C249.6,40.8,248.9,40.1,248,40.2z"/>
		<path fill="#2C6866" d="M257.9,39.9c-0.9,0-1.6,0.8-1.5,1.6c0,0.9,0.8,1.6,1.6,1.5c0.9,0,1.6-0.8,1.5-1.6
			C259.5,40.5,258.7,39.8,257.9,39.9z"/>
		<path fill="#2C6866" d="M267.7,39.5c-0.9,0-1.6,0.8-1.5,1.6c0,0.9,0.8,1.6,1.6,1.5c0.9,0,1.6-0.8,1.5-1.6
			C269.3,40.2,268.6,39.5,267.7,39.5z"/>
		<path fill="#2C6866" d="M277.5,39.2c-0.9,0-1.6,0.8-1.5,1.6c0,0.9,0.8,1.6,1.6,1.5c0.9,0,1.6-0.8,1.5-1.6
			C279.1,39.9,278.4,39.2,277.5,39.2z"/>
		<path fill="#2C6866" d="M287.4,38.9c-0.9,0-1.6,0.8-1.5,1.6c0,0.9,0.8,1.6,1.6,1.5c0.9,0,1.6-0.8,1.5-1.6
			C289,39.6,288.2,38.9,287.4,38.9z"/>
		<path fill="#2C6866" d="M297.2,38.6c-0.9,0-1.6,0.8-1.5,1.6c0,0.9,0.8,1.6,1.6,1.5c0.9,0,1.6-0.8,1.5-1.6
			C298.8,39.2,298.1,38.6,297.2,38.6z"/>
		<path fill="#2C6866" d="M307,38.3c-0.9,0-1.6,0.8-1.5,1.6c0,0.9,0.8,1.6,1.6,1.5c0.9,0,1.6-0.8,1.5-1.6
			C308.6,38.9,307.9,38.3,307,38.3z"/>
		<path fill="#2C6866" d="M317,41.1c0.9,0,1.6-0.8,1.5-1.6c0-0.9-0.8-1.6-1.6-1.5c-0.9,0-1.6,0.8-1.5,1.6
			C315.4,40.5,316.1,41.1,317,41.1z"/>
		<path fill="#2C6866" d="M248.3,49.2c-0.9,0-1.6,0.8-1.5,1.6c0,0.9,0.8,1.6,1.6,1.5c0.9,0,1.6-0.8,1.5-1.6
			C249.9,49.9,249.2,49.2,248.3,49.2z"/>
		<path fill="#2C6866" d="M258.2,48.9c-0.9,0-1.6,0.8-1.5,1.6c0,0.9,0.8,1.6,1.6,1.5s1.6-0.8,1.5-1.6
			C259.8,49.5,259,48.9,258.2,48.9z"/>
		<path fill="#2C6866" d="M268,48.6c-0.9,0-1.6,0.8-1.5,1.6c0,0.9,0.8,1.6,1.6,1.5c0.9,0,1.6-0.8,1.5-1.6
			C269.6,49.2,268.9,48.5,268,48.6z"/>
		<path fill="#2C6866" d="M277.8,48.3c-0.9,0-1.6,0.8-1.5,1.6s0.8,1.6,1.6,1.5c0.9,0,1.6-0.8,1.5-1.6
			C279.4,48.9,278.7,48.2,277.8,48.3z"/>
		<path fill="#2C6866" d="M287.6,47.9c-0.9,0-1.6,0.8-1.5,1.6c0,0.9,0.8,1.6,1.6,1.5c0.9,0,1.6-0.8,1.5-1.6
			C289.2,48.6,288.5,47.9,287.6,47.9z"/>
		<path fill="#2C6866" d="M297.5,47.6c-0.9,0-1.6,0.8-1.5,1.6c0,0.9,0.8,1.6,1.6,1.5c0.9,0,1.6-0.8,1.5-1.6
			C299.1,48.3,298.4,47.6,297.5,47.6z"/>
		<path fill="#2C6866" d="M307.3,47.3c-0.9,0-1.6,0.8-1.5,1.6c0,0.9,0.8,1.6,1.6,1.5c0.9,0,1.6-0.8,1.5-1.6
			C308.9,48,308.2,47.3,307.3,47.3z"/>
		<path fill="#2C6866" d="M317.2,50.1c0.9,0,1.6-0.8,1.5-1.6c0-0.9-0.8-1.6-1.6-1.5c-0.9,0-1.6,0.8-1.5,1.6
			C315.6,49.5,316.4,50.2,317.2,50.1z"/>
		<path fill="#2C6866" d="M248.6,58.2c-0.9,0-1.6,0.8-1.5,1.6c0,0.9,0.8,1.6,1.6,1.5c0.9,0,1.6-0.8,1.5-1.6
			C250.2,58.9,249.5,58.2,248.6,58.2z"/>
		<path fill="#2C6866" d="M258.4,57.9c-0.9,0-1.6,0.8-1.5,1.6c0,0.9,0.8,1.6,1.6,1.5c0.9,0,1.6-0.8,1.5-1.6
			C260,58.6,259.3,57.9,258.4,57.9z"/>
		<path fill="#2C6866" d="M268.3,57.6c-0.9,0-1.6,0.8-1.5,1.6c0,0.9,0.8,1.6,1.6,1.5c0.9,0,1.6-0.8,1.5-1.6
			C269.9,58.3,269.1,57.6,268.3,57.6z"/>
		<path fill="#2C6866" d="M278.1,57.3c-0.9,0-1.6,0.8-1.5,1.6c0,0.9,0.8,1.6,1.6,1.5c0.9,0,1.6-0.8,1.5-1.6
			C279.7,57.9,279,57.3,278.1,57.3z"/>
		<path fill="#2C6866" d="M287.9,57c-0.9,0-1.6,0.8-1.5,1.6c0,0.9,0.8,1.6,1.6,1.5c0.9,0,1.6-0.8,1.5-1.6
			C289.5,57.6,288.8,56.9,287.9,57z"/>
		<path fill="#2C6866" d="M297.8,56.7c-0.9,0-1.6,0.8-1.5,1.6c0,0.9,0.8,1.6,1.6,1.5c0.9,0,1.6-0.8,1.5-1.6
			C299.4,57.3,298.6,56.6,297.8,56.7z"/>
		<path fill="#2C6866" d="M307.6,56.3c-0.9,0-1.6,0.8-1.5,1.6c0,0.9,0.8,1.6,1.6,1.5c0.9,0,1.6-0.8,1.5-1.6
			C309.2,57,308.5,56.3,307.6,56.3z"/>
		<path fill="#2C6866" d="M317.5,59.2c0.9,0,1.6-0.8,1.5-1.6c0-0.9-0.8-1.6-1.6-1.5c-0.9,0-1.6,0.8-1.5,1.6
			C315.9,58.5,316.7,59.2,317.5,59.2z"/>
		<path fill="#2C6866" d="M258.7,67c-0.9,0-1.6,0.8-1.5,1.6s0.8,1.6,1.6,1.5c0.9,0,1.6-0.8,1.5-1.6C260.3,67.6,259.6,66.9,258.7,67z
			"/>
		<path fill="#2C6866" d="M268.6,66.6c-0.9,0-1.6,0.8-1.5,1.6c0,0.9,0.8,1.6,1.6,1.5c0.9,0,1.6-0.8,1.5-1.6
			C270.2,67.3,269.4,66.6,268.6,66.6z"/>
		<path fill="#2C6866" d="M278.4,66.3c-0.9,0-1.6,0.8-1.5,1.6c0,0.9,0.8,1.6,1.6,1.5c0.9,0,1.6-0.8,1.5-1.6S279.3,66.3,278.4,66.3z"
			/>
		<path fill="#2C6866" d="M288.2,66c-0.9,0-1.6,0.8-1.5,1.6c0,0.9,0.8,1.6,1.6,1.5c0.9,0,1.6-0.8,1.5-1.6
			C289.8,66.7,289.1,66,288.2,66z"/>
		<path fill="#2C6866" d="M298.1,65.7c-0.9,0-1.6,0.8-1.5,1.6c0,0.9,0.8,1.6,1.6,1.5c0.9,0,1.6-0.8,1.5-1.6S298.9,65.7,298.1,65.7z"
			/>
		<path fill="#2C6866" d="M307.9,65.4c-0.9,0-1.6,0.8-1.5,1.6c0,0.9,0.8,1.6,1.6,1.5c0.9,0,1.6-0.8,1.5-1.6
			C309.5,66,308.8,65.3,307.9,65.4z"/>
		<path fill="#2C6866" d="M316.2,66.7c0,0.4,0.2,0.7,0.4,1c0.5-0.8,0.9-1.7,1.3-2.6c0,0-0.1,0-0.1,0
			C316.9,65.1,316.2,65.8,316.2,66.7z"/>
		<path fill="#2C6866" d="M260.6,77.5c0-0.9-0.8-1.6-1.6-1.5c-0.7,0-1.4,0.6-1.5,1.3c0.7,0.6,1.3,1.2,2.1,1.8
			C260.2,78.8,260.7,78.2,260.6,77.5z"/>
		<path fill="#2C6866" d="M268.9,75.7c-0.9,0-1.6,0.8-1.5,1.6c0,0.9,0.8,1.6,1.6,1.5c0.9,0,1.6-0.8,1.5-1.6
			C270.5,76.3,269.7,75.6,268.9,75.7z"/>
		<path fill="#2C6866" d="M278.7,75.4c-0.9,0-1.6,0.8-1.5,1.6c0,0.9,0.8,1.6,1.6,1.5s1.6-0.8,1.5-1.6
			C280.3,76,279.6,75.3,278.7,75.4z"/>
		<path fill="#2C6866" d="M288.5,75c-0.9,0-1.6,0.8-1.5,1.6c0,0.9,0.8,1.6,1.6,1.5c0.9,0,1.6-0.8,1.5-1.6
			C290.1,75.7,289.4,75,288.5,75z"/>
		<path fill="#2C6866" d="M298.3,74.7c-0.9,0-1.6,0.8-1.5,1.6c0,0.9,0.8,1.6,1.6,1.5c0.9,0,1.6-0.8,1.5-1.6
			C299.9,75.4,299.2,74.7,298.3,74.7z"/>
		<path fill="#2C6866" d="M308.2,74.4c-0.9,0-1.6,0.8-1.5,1.6c0,0.9,0.8,1.6,1.6,1.5c0.3,0,0.6-0.1,0.8-0.3c0.1-0.1,0.2-0.2,0.3-0.3
			c0.2-0.3,0.4-0.6,0.3-1C309.8,75.1,309.1,74.4,308.2,74.4z"/>
		<path fill="#2C6866" d="M270.3,85.1c-0.3-0.3-0.7-0.4-1.1-0.4C269.5,84.8,269.9,85,270.3,85.1z"/>
		<path fill="#2C6866" d="M280.6,85.9c0-0.9-0.8-1.6-1.6-1.5c-0.9,0-1.6,0.8-1.5,1.6c0,0.4,0.2,0.8,0.5,1.1c0.6,0.1,1.3,0.2,2,0.2
			C280.3,87,280.6,86.5,280.6,85.9z"/>
		<path fill="#2C6866" d="M290.4,85.6c0-0.9-0.8-1.6-1.6-1.5s-1.6,0.8-1.5,1.6c0,0.7,0.4,1.2,1,1.4c0.5-0.1,1-0.1,1.5-0.2
			C290.2,86.6,290.4,86.1,290.4,85.6z"/>
		<path fill="#2C6866" d="M297.2,84.8c0.7-0.3,1.4-0.6,2.1-0.9c-0.2-0.1-0.4-0.2-0.7-0.1C298,83.8,297.4,84.2,297.2,84.8z"/>
	</g>
	<path fill="#2C6866" d="M81.9,7.8c0,3.7-2.9,6.6-6.5,6.6c-3.6,0-6.5-3-6.5-6.6c0-3.7,2.9-6.6,6.5-6.6C79,1.2,81.9,4.2,81.9,7.8z"/>
	<path fill="#CA2332" d="M341.6,176.5c0,3.7-2.9,6.6-6.5,6.6c-3.6,0-6.5-3-6.5-6.6c0-3.7,2.9-6.6,6.5-6.6
		C338.8,169.9,341.6,172.8,341.6,176.5z"/>
</g>
<g id="DESIGNED_BY_FREEPIK">
</g>
</svg>
